<svg width="16" height="16" viewBox="0 0 16 16" xmlns="http://www.w3.org/2000/svg"><path d="M8 0C3.589 0 0 3.589 0 8s3.589 8 8 8 8-3.589 8-8-3.589-8-8-8zm5.29 3.69a6.8 6.8 0 0 1 1.542 4.256c-.225-.048-2.484-.506-4.758-.22-.185-.453-.36-.851-.6-1.342 2.526-1.032 3.671-2.5 3.815-2.695zm-.76-.791c-.123.175-1.152 1.558-3.582 2.468a36.474 36.474 0 0 0-2.55-4A6.816 6.816 0 0 1 12.53 2.9zM5.095 1.826a43.6 43.6 0 0 1 2.533 3.952c-3.196.85-6.011.837-6.317.833a6.858 6.858 0 0 1 3.784-4.785zM1.167 8.01c0-.07.001-.139.003-.208.3.006 3.61.048 7.023-.973.196.383.383.772.554 1.16-2.47.696-4.716 2.694-5.824 4.59A6.806 6.806 0 0 1 1.167 8.01zm2.639 5.391c.713-1.459 2.65-3.342 5.405-4.282.96 2.493 1.357 4.582 1.458 5.182a6.82 6.82 0 0 1-6.863-.9zm8.012.274c-.07-.416-.434-2.416-1.328-4.872 2.142-.343 4.023.218 4.257.292a6.845 6.845 0 0 1-2.929 4.58z"/></svg>
