<svg width="16" height="16" viewBox="0 0 16 16" xmlns="http://www.w3.org/2000/svg"><path d="M6.203 10.823c0 .697-.363 1.837-1.223 1.837-.86 0-1.223-1.14-1.223-1.837 0-.696.363-1.836 1.223-1.836.86 0 1.223 1.14 1.223 1.836zM16 9.14c0 1.063-.107 2.19-.583 3.167C14.153 14.86 10.68 14.8 8.193 14.8c-2.526 0-6.206.09-7.52-2.493C.187 11.34 0 10.203 0 9.14c0-1.397.463-2.717 1.383-3.787a5.218 5.218 0 0 1-.256-1.626c0-.717.163-1.077.486-1.727 1.51 0 2.477.3 3.627 1.2.967-.23 1.96-.333 2.957-.333.9 0 1.806.096 2.68.306C12.01 2.283 12.977 2 14.47 2c.327.65.487 1.01.487 1.727 0 .546-.087 1.09-.257 1.606.917 1.08 1.3 2.41 1.3 3.807zm-2.143 1.683c0-1.463-.89-2.753-2.45-2.753-.63 0-1.234.113-1.867.2a9.794 9.794 0 0 1-1.503.107c-.507 0-1.004-.03-1.504-.107-.623-.087-1.233-.2-1.866-.2-1.56 0-2.45 1.29-2.45 2.753 0 2.927 2.68 3.377 5.013 3.377h1.607c2.343 0 5.02-.447 5.02-3.377zm-2.754-1.836c-.86 0-1.223 1.14-1.223 1.836 0 .697.363 1.837 1.223 1.837.86 0 1.224-1.14 1.224-1.837 0-.696-.364-1.836-1.224-1.836z"/></svg>
