<svg width="16" height="16" viewBox="0 0 16 16" xmlns="http://www.w3.org/2000/svg"><path d="M15.697 5.963a.188.188 0 0 1 .303.146V12.5a1.5 1.5 0 0 1-1.5 1.5h-13A1.5 1.5 0 0 1 0 12.5V6.112c0-.156.178-.243.303-.146.7.543 1.628 1.234 4.816 3.55.66.48 1.772 1.493 2.881 1.487 1.116.01 2.25-1.025 2.884-1.487 3.188-2.316 4.113-3.01 4.813-3.553zM8 10c.725.012 1.769-.912 2.294-1.294 4.147-3.01 4.462-3.272 5.418-4.022a.748.748 0 0 0 .288-.59V3.5A1.5 1.5 0 0 0 14.5 2h-13A1.5 1.5 0 0 0 0 3.5v.594c0 .231.106.447.287.59.957.747 1.272 1.013 5.42 4.022C6.23 9.088 7.274 10.012 8 10z"/></svg>
