<svg width="16" height="16" viewBox="0 0 16 16" xmlns="http://www.w3.org/2000/svg"><path d="M7.988.048A7.95 7.95 0 0 0 .036 8a7.944 7.944 0 0 0 5.05 7.403c-.071-.633-.13-1.588.024-2.28.144-.622.932-3.953.932-3.953s-.239-.477-.239-1.182c0-1.11.645-1.934 1.433-1.934.68 0 1.003.513 1.003 1.122 0 .68-.43 1.708-.657 2.65-.191.789.394 1.434 1.182 1.434 1.41 0 2.496-1.493 2.496-3.642 0-1.899-1.373-3.236-3.32-3.236-2.256 0-3.594 1.696-3.594 3.45 0 .681.263 1.422.597 1.816.06.083.072.143.06.227-.06.25-.191.788-.215.895-.036.143-.12.18-.263.108-.99-.466-1.612-1.91-1.612-3.081 0-2.507 1.827-4.812 5.254-4.812 2.758 0 4.896 1.97 4.896 4.585 0 2.734-1.732 4.943-4.12 4.943-.8 0-1.564-.417-1.827-.907l-.49 1.887c-.178.692-.668 1.552-.99 2.09A7.95 7.95 0 0 0 15.94 7.988c0-4.383-3.558-7.941-7.952-7.941z"/></svg>
