<svg width="16" height="16" viewBox="0 0 16 16" xmlns="http://www.w3.org/2000/svg"><path d="M4.564 13.682a2.282 2.282 0 1 1-4.564 0 2.282 2.282 0 0 1 4.564 0zm6.26 1.684C10.526 9.856 6.114 5.439.598 5.141A.57.57 0 0 0 0 5.71v1.713c0 .3.231.55.53.57a7.985 7.985 0 0 1 7.44 7.44c.02.3.271.53.57.53h1.714a.57.57 0 0 0 .57-.598zm5.14.01C15.664 7.044 8.961.301.588 0A.57.57 0 0 0 0 .57v1.714c0 .307.244.557.55.57 6.813.28 12.281 5.748 12.56 12.56.013.307.263.55.57.55h1.714a.57.57 0 0 0 .57-.588z"/></svg>
