<svg width="16" height="16" viewBox="0 0 16 16" xmlns="http://www.w3.org/2000/svg"><path d="M16 12.636c0 .41-.182 1.205-.352 1.58-.239.556-.875.92-1.387 1.204-.67.364-1.352.58-2.113.58-1.057 0-2.011-.432-2.978-.784-.693-.245-1.36-.56-1.988-.943C5.25 13.08 2.92 10.75 1.727 8.818A10.623 10.623 0 0 1 .784 6.83C.432 5.863 0 4.91 0 3.852c0-.761.216-1.443.58-2.114C.863 1.226 1.227.59 1.784.351 2.16.181 2.954 0 3.364 0c.08 0 .159 0 .238.034.239.08.489.637.602.863.364.648.717 1.307 1.091 1.944.182.295.523.659.523 1.01 0 .694-2.057 1.706-2.057 2.32 0 .306.284.705.444.977 1.147 2.068 2.579 3.5 4.647 4.647.273.16.67.444.978.444.613 0 1.625-2.057 2.318-2.057.352 0 .716.34 1.01.523.638.374 1.297.727 1.945 1.09.226.114.784.364.863.603a.58.58 0 0 1 .034.238z"/></svg>
